<svg xmlns="http://www.w3.org/2000/svg" viewBox="0 0 512 512" width="1024" height="1024">
  <!-- Concept D: an open box seen from above (app-tile shape, thick black side),
       with a ruled page with a curled corner lying inside. -->
  <defs>
    <clipPath id="tile"><rect x="32" y="32" width="448" height="424" rx="110"/></clipPath>
  </defs>
  <rect x="32" y="60" width="448" height="424" rx="110" fill="#0B0B0C"/>
  <g clip-path="url(#tile)">
    <polygon points="32,32 480,32 356,144 156,144" fill="#7FB2F4"/>
    <polygon points="32,32 156,144 156,344 32,456" fill="#2F7DE1"/>
    <polygon points="480,32 480,456 356,344 356,144" fill="#1F63C6"/>
    <polygon points="32,456 156,344 356,344 480,456" fill="#4A93ED"/>
    <rect x="156" y="144" width="200" height="200" fill="#174C9C"/>
  </g>
  <g transform="rotate(-6 256 240)">
    <path d="M180 150 H332 V286 L292 326 H180 Z" fill="#FFFFFF" stroke="#0B0B0C" stroke-width="8" stroke-linejoin="round"/>
    <path d="M204 190 H308 M204 218 H308 M204 246 H308" stroke="#0B0B0C" stroke-width="12" stroke-linecap="round"/>
    <path d="M204 274 H262" stroke="#2F7DE1" stroke-width="12" stroke-linecap="round"/>
    <polygon points="292,326 332,286 298,292" fill="#D6E3F5" stroke="#0B0B0C" stroke-width="7" stroke-linejoin="round"/>
  </g>
  <rect x="376" y="344" width="64" height="64" rx="10" fill="#FF2E7E" stroke="#FFFFFF" stroke-width="10"/>
</svg>
