<svg xmlns="http://www.w3.org/2000/svg" viewBox="0 0 512 512" width="1024" height="1024">
  <!-- Concept F: a white shelf (open cubby) holding yellow document binders, on the
       cobalt app tile with the black base. -->
  <rect x="32" y="60" width="448" height="424" rx="110" fill="#0B0B0C"/>
  <rect x="32" y="32" width="448" height="424" rx="110" fill="#2F7DE1"/>
  <rect x="104" y="100" width="304" height="288" rx="20" fill="#FFFFFF"/>
  <rect x="134" y="130" width="244" height="228" rx="6" fill="#174C9C"/>
  <g transform="rotate(-8 178 176)">
    <rect x="160" y="140" width="38" height="46" fill="#FFFFFF" stroke="#0B0B0C" stroke-width="6"/>
    <path d="M168 154 H190 M168 166 H190" stroke="#0B0B0C" stroke-width="5"/>
  </g>
  <rect x="150" y="170" width="54" height="188" rx="6" fill="#FFC93C" stroke="#0B0B0C" stroke-width="8"/>
  <rect x="163" y="192" width="28" height="42" rx="3" fill="#FFFFFF" stroke="#0B0B0C" stroke-width="5"/>
  <circle cx="177" cy="306" r="10" fill="#0B0B0C"/>
  <rect x="212" y="154" width="58" height="204" rx="6" fill="#FFB000" stroke="#0B0B0C" stroke-width="8"/>
  <rect x="226" y="176" width="30" height="46" rx="3" fill="#FFFFFF" stroke="#0B0B0C" stroke-width="5"/>
  <circle cx="241" cy="306" r="10" fill="#0B0B0C"/>
  <g transform="rotate(13 276 358)">
    <rect x="276" y="174" width="54" height="184" rx="6" fill="#FFD966" stroke="#0B0B0C" stroke-width="8"/>
    <rect x="289" y="196" width="28" height="42" rx="3" fill="#FFFFFF" stroke="#0B0B0C" stroke-width="5"/>
    <circle cx="303" cy="306" r="10" fill="#0B0B0C"/>
  </g>
</svg>
